<svg xmlns="http://www.w3.org/2000/svg" viewBox="522 2 1359 1359" fill="none">
  <mask id="counter" maskUnits="userSpaceOnUse" x="522" y="2" width="1359" height="1359">
    <rect x="522" y="2" width="1359" height="1359" fill="#fff"/>
    <circle cx="1202.29" cy="845.85" r="196.23" fill="#000"/>
  </mask>
  <path fill="#a891d7" mask="url(#counter)" d="M 918.12 584.02
  A 0.40 0.40 0.0 0 0 918.81 584.31
  Q 934.59 567.87 953.60 551.09
  Q 955.60 549.33 967.78 539.78
  Q 971.96 536.50 989.51 524.60
  Q 1002.34 515.90 1012.00 510.56
  Q 1045.49 492.03 1077.27 481.29
  Q 1147.36 457.60 1222.09 461.51
  Q 1325.21 466.91 1410.33 521.31
  C 1458.02 551.79 1498.18 593.02 1528.65 641.09
  Q 1536.59 653.63 1548.21 676.61
  Q 1558.02 696.01 1564.04 713.75
  Q 1576.32 749.91 1581.57 780.45
  Q 1586.90 811.43 1586.96 846.01
  Q 1587.08 908.06 1567.29 967.32
  Q 1564.49 975.69 1556.99 994.02
  C 1549.29 1012.82 1540.02 1029.78 1529.35 1047.33
  C 1512.42 1075.16 1491.01 1101.10 1467.97 1122.95
  C 1411.55 1176.45 1340.98 1212.40 1264.63 1225.17
  C 1176.84 1239.86 1085.73 1222.82 1009.21 1177.57
  Q 928.43 1129.79 877.74 1051.27
  Q 874.72 1046.60 867.11 1033.20
  Q 860.73 1021.96 857.16 1014.74
  Q 826.09 952.00 819.57 881.73
  Q 818.05 865.35 818.09 830.22
  Q 818.27 684.34 818.05 341.56
  Q 818.03 313.89 819.45 303.07
  Q 822.73 278.24 831.84 254.77
  Q 839.10 236.06 852.29 216.76
  Q 865.08 198.05 882.74 182.45
  Q 916.13 152.95 958.24 141.24
  Q 1012.60 126.12 1066.12 142.12
  Q 1102.32 152.95 1130.85 176.30
  C 1144.65 187.60 1157.56 200.47 1167.52 214.98
  Q 1172.78 222.66 1179.05 233.69
  C 1191.63 255.81 1198.61 279.19 1201.89 305.01
  C 1203.54 318.02 1204.01 328.09 1199.97 339.71
  Q 1196.13 350.78 1187.87 358.35
  C 1179.48 366.03 1170.20 371.18 1159.06 372.07
  C 1146.23 373.09 1136.28 371.17 1125.40 364.49
  C 1113.41 357.12 1107.10 346.38 1103.49 333.04
  Q 1102.83 330.60 1102.15 319.91
  C 1100.83 299.29 1093.70 278.95 1079.56 263.34
  C 1068.72 251.36 1054.75 241.84 1039.55 236.33
  Q 1033.06 233.98 1024.34 232.89
  C 1009.35 231.01 993.84 232.12 979.57 237.14
  C 966.15 241.85 953.48 251.15 943.47 261.47
  Q 933.94 271.30 928.32 283.32
  C 923.87 292.85 920.16 305.39 918.78 316.68
  Q 918.18 321.54 918.18 335.33
  Q 918.20 409.36 918.19 523.58
  Q 918.19 540.43 918.12 550.92
  C 918.05 562.85 918.47 573.53 918.12 584.02
  Z
  M 1398.52 845.85
  A 196.23 196.23 0.0 0 0 1202.29 649.62
  A 196.23 196.23 0.0 0 0 1006.06 845.85
  A 196.23 196.23 0.0 0 0 1202.29 1042.08
  A 196.23 196.23 0.0 0 0 1398.52 845.85
  Z"/>
</svg>
